<mxfile host="app.diagrams.net" modified="2024-04-14T02:56:42.915Z" agent="Mozilla/5.0 (Windows NT 10.0; Win64; x64) AppleWebKit/537.36 (KHTML, like Gecko) Chrome/123.0.0.0 Safari/537.36" etag="I-zvt7XApfkU6JsRCmH9" version="24.2.5" type="github">
  <diagram name="第 1 页" id="gC64RIAmAKdzleii_ZuX">
    <mxGraphModel dx="1434" dy="746" grid="1" gridSize="10" guides="1" tooltips="1" connect="1" arrows="1" fold="1" page="1" pageScale="1" pageWidth="827" pageHeight="1169" math="0" shadow="0">
      <root>
        <mxCell id="0" />
        <mxCell id="1" parent="0" />
        <mxCell id="hGduqSqF2w4iXzGVrDcJ-5" style="edgeStyle=orthogonalEdgeStyle;rounded=0;orthogonalLoop=1;jettySize=auto;html=1;" parent="1" source="hGduqSqF2w4iXzGVrDcJ-1" target="hGduqSqF2w4iXzGVrDcJ-3" edge="1">
          <mxGeometry relative="1" as="geometry">
            <Array as="points">
              <mxPoint x="360" y="410" />
              <mxPoint x="360" y="410" />
            </Array>
          </mxGeometry>
        </mxCell>
        <mxCell id="hGduqSqF2w4iXzGVrDcJ-6" value="发起支付" style="edgeLabel;html=1;align=center;verticalAlign=middle;resizable=0;points=[];" parent="hGduqSqF2w4iXzGVrDcJ-5" vertex="1" connectable="0">
          <mxGeometry x="-0.1429" y="-7" relative="1" as="geometry">
            <mxPoint as="offset" />
          </mxGeometry>
        </mxCell>
        <mxCell id="hGduqSqF2w4iXzGVrDcJ-21" style="edgeStyle=orthogonalEdgeStyle;rounded=0;orthogonalLoop=1;jettySize=auto;html=1;" parent="1" source="hGduqSqF2w4iXzGVrDcJ-1" target="hGduqSqF2w4iXzGVrDcJ-11" edge="1">
          <mxGeometry relative="1" as="geometry" />
        </mxCell>
        <mxCell id="hGduqSqF2w4iXzGVrDcJ-1" value="政务平台" style="rounded=0;whiteSpace=wrap;html=1;" parent="1" vertex="1">
          <mxGeometry x="330" y="300" width="120" height="60" as="geometry" />
        </mxCell>
        <mxCell id="hGduqSqF2w4iXzGVrDcJ-7" style="edgeStyle=orthogonalEdgeStyle;rounded=0;orthogonalLoop=1;jettySize=auto;html=1;" parent="1" source="hGduqSqF2w4iXzGVrDcJ-3" target="hGduqSqF2w4iXzGVrDcJ-4" edge="1">
          <mxGeometry relative="1" as="geometry">
            <Array as="points">
              <mxPoint x="360" y="550" />
              <mxPoint x="360" y="550" />
            </Array>
          </mxGeometry>
        </mxCell>
        <mxCell id="hGduqSqF2w4iXzGVrDcJ-8" value="发起支付" style="edgeLabel;html=1;align=center;verticalAlign=middle;resizable=0;points=[];" parent="hGduqSqF2w4iXzGVrDcJ-7" vertex="1" connectable="0">
          <mxGeometry x="0.075" y="-3" relative="1" as="geometry">
            <mxPoint as="offset" />
          </mxGeometry>
        </mxCell>
        <mxCell id="hGduqSqF2w4iXzGVrDcJ-16" style="edgeStyle=orthogonalEdgeStyle;rounded=0;orthogonalLoop=1;jettySize=auto;html=1;" parent="1" source="hGduqSqF2w4iXzGVrDcJ-3" target="hGduqSqF2w4iXzGVrDcJ-15" edge="1">
          <mxGeometry relative="1" as="geometry">
            <Array as="points">
              <mxPoint x="510" y="470" />
              <mxPoint x="510" y="470" />
            </Array>
          </mxGeometry>
        </mxCell>
        <mxCell id="hGduqSqF2w4iXzGVrDcJ-25" style="edgeStyle=orthogonalEdgeStyle;rounded=0;orthogonalLoop=1;jettySize=auto;html=1;entryX=0.75;entryY=1;entryDx=0;entryDy=0;" parent="1" source="hGduqSqF2w4iXzGVrDcJ-3" target="hGduqSqF2w4iXzGVrDcJ-1" edge="1">
          <mxGeometry relative="1" as="geometry">
            <Array as="points">
              <mxPoint x="420" y="410" />
              <mxPoint x="420" y="410" />
            </Array>
          </mxGeometry>
        </mxCell>
        <mxCell id="hGduqSqF2w4iXzGVrDcJ-26" value="返回" style="edgeLabel;html=1;align=center;verticalAlign=middle;resizable=0;points=[];" parent="hGduqSqF2w4iXzGVrDcJ-25" vertex="1" connectable="0">
          <mxGeometry x="-0.0286" y="3" relative="1" as="geometry">
            <mxPoint as="offset" />
          </mxGeometry>
        </mxCell>
        <mxCell id="hGduqSqF2w4iXzGVrDcJ-3" value="财务收支系统（在线支付表）" style="rounded=0;whiteSpace=wrap;html=1;" parent="1" vertex="1">
          <mxGeometry x="330" y="430" width="120" height="60" as="geometry" />
        </mxCell>
        <mxCell id="hGduqSqF2w4iXzGVrDcJ-23" style="edgeStyle=orthogonalEdgeStyle;rounded=0;orthogonalLoop=1;jettySize=auto;html=1;" parent="1" source="hGduqSqF2w4iXzGVrDcJ-4" target="hGduqSqF2w4iXzGVrDcJ-3" edge="1">
          <mxGeometry relative="1" as="geometry">
            <Array as="points">
              <mxPoint x="430" y="520" />
              <mxPoint x="430" y="520" />
            </Array>
          </mxGeometry>
        </mxCell>
        <mxCell id="hGduqSqF2w4iXzGVrDcJ-24" value="返回二维码" style="edgeLabel;html=1;align=center;verticalAlign=middle;resizable=0;points=[];" parent="hGduqSqF2w4iXzGVrDcJ-23" vertex="1" connectable="0">
          <mxGeometry x="-0.025" y="-1" relative="1" as="geometry">
            <mxPoint as="offset" />
          </mxGeometry>
        </mxCell>
        <mxCell id="hGduqSqF2w4iXzGVrDcJ-4" value="银联" style="rounded=0;whiteSpace=wrap;html=1;" parent="1" vertex="1">
          <mxGeometry x="330" y="570" width="120" height="60" as="geometry" />
        </mxCell>
        <mxCell id="hGduqSqF2w4iXzGVrDcJ-22" style="edgeStyle=orthogonalEdgeStyle;rounded=0;orthogonalLoop=1;jettySize=auto;html=1;entryX=0.5;entryY=1;entryDx=0;entryDy=0;" parent="1" source="hGduqSqF2w4iXzGVrDcJ-11" target="hGduqSqF2w4iXzGVrDcJ-12" edge="1">
          <mxGeometry relative="1" as="geometry" />
        </mxCell>
        <mxCell id="hGduqSqF2w4iXzGVrDcJ-11" value="展示银联二维码" style="rounded=0;whiteSpace=wrap;html=1;" parent="1" vertex="1">
          <mxGeometry x="150" y="300" width="120" height="60" as="geometry" />
        </mxCell>
        <mxCell id="hGduqSqF2w4iXzGVrDcJ-28" style="edgeStyle=orthogonalEdgeStyle;rounded=0;orthogonalLoop=1;jettySize=auto;html=1;" parent="1" source="hGduqSqF2w4iXzGVrDcJ-12" target="hGduqSqF2w4iXzGVrDcJ-4" edge="1">
          <mxGeometry relative="1" as="geometry">
            <Array as="points">
              <mxPoint x="90" y="240" />
              <mxPoint x="90" y="600" />
            </Array>
          </mxGeometry>
        </mxCell>
        <mxCell id="hGduqSqF2w4iXzGVrDcJ-29" value="支付" style="edgeLabel;html=1;align=center;verticalAlign=middle;resizable=0;points=[];" parent="hGduqSqF2w4iXzGVrDcJ-28" vertex="1" connectable="0">
          <mxGeometry x="-0.2273" relative="1" as="geometry">
            <mxPoint as="offset" />
          </mxGeometry>
        </mxCell>
        <mxCell id="hGduqSqF2w4iXzGVrDcJ-12" value="用户扫码使用微信、支付宝支付" style="rounded=0;whiteSpace=wrap;html=1;" parent="1" vertex="1">
          <mxGeometry x="150" y="210" width="120" height="60" as="geometry" />
        </mxCell>
        <mxCell id="hGduqSqF2w4iXzGVrDcJ-18" style="edgeStyle=orthogonalEdgeStyle;rounded=0;orthogonalLoop=1;jettySize=auto;html=1;" parent="1" source="hGduqSqF2w4iXzGVrDcJ-15" target="hGduqSqF2w4iXzGVrDcJ-4" edge="1">
          <mxGeometry relative="1" as="geometry">
            <mxPoint x="610" y="510" as="sourcePoint" />
            <mxPoint x="480" y="605" as="targetPoint" />
            <Array as="points">
              <mxPoint x="660" y="600" />
            </Array>
          </mxGeometry>
        </mxCell>
        <mxCell id="hGduqSqF2w4iXzGVrDcJ-19" style="edgeStyle=orthogonalEdgeStyle;rounded=0;orthogonalLoop=1;jettySize=auto;html=1;" parent="1" source="hGduqSqF2w4iXzGVrDcJ-15" edge="1">
          <mxGeometry relative="1" as="geometry">
            <mxPoint x="650" y="400" as="sourcePoint" />
            <mxPoint x="450" y="320" as="targetPoint" />
            <Array as="points">
              <mxPoint x="650" y="320" />
            </Array>
          </mxGeometry>
        </mxCell>
        <mxCell id="hGduqSqF2w4iXzGVrDcJ-20" value="通知" style="edgeLabel;html=1;align=center;verticalAlign=middle;resizable=0;points=[];" parent="hGduqSqF2w4iXzGVrDcJ-19" vertex="1" connectable="0">
          <mxGeometry x="-0.4612" y="1" relative="1" as="geometry">
            <mxPoint as="offset" />
          </mxGeometry>
        </mxCell>
        <mxCell id="hGduqSqF2w4iXzGVrDcJ-15" value="定时任务获取支付结果（缴费记录表）" style="rounded=0;whiteSpace=wrap;html=1;" parent="1" vertex="1">
          <mxGeometry x="580" y="430" width="120" height="60" as="geometry" />
        </mxCell>
        <mxCell id="hGduqSqF2w4iXzGVrDcJ-27" value="支付流程图 A -1" style="text;html=1;align=center;verticalAlign=middle;whiteSpace=wrap;rounded=0;fontSize=20;fontStyle=1" parent="1" vertex="1">
          <mxGeometry x="245" y="120" width="290" height="30" as="geometry" />
        </mxCell>
        <mxCell id="hGduqSqF2w4iXzGVrDcJ-30" style="edgeStyle=orthogonalEdgeStyle;rounded=0;orthogonalLoop=1;jettySize=auto;html=1;" parent="1" source="hGduqSqF2w4iXzGVrDcJ-15" target="hGduqSqF2w4iXzGVrDcJ-3" edge="1">
          <mxGeometry relative="1" as="geometry">
            <Array as="points">
              <mxPoint x="470" y="440" />
              <mxPoint x="470" y="440" />
            </Array>
            <mxPoint x="490" y="430" as="targetPoint" />
          </mxGeometry>
        </mxCell>
      </root>
    </mxGraphModel>
  </diagram>
</mxfile>
